{
	"asset":{
		"generator":"Khronos glTF Blender I/O v4.2.60",
		"version":"2.0"
	},
	"scene":0,
	"scenes":[
		{
			"name":"Scene",
			"nodes":[
				0,
				1,
				2,
				3,
				4
			]
		}
	],
	"nodes":[
		{
			"mesh":0,
			"name":"Object_2",
			"rotation":[
				-0.70710688829422,
				0,
				0,
				0.7071066498756409
			],
			"translation":[
				-0.4390525817871094,
				1.0303821563720703,
				-24.819299697875977
			]
		},
		{
			"mesh":1,
			"name":"Object_3",
			"rotation":[
				-0.70710688829422,
				0,
				0,
				0.7071066498756409
			],
			"translation":[
				0.13237953186035156,
				4.6229071617126465,
				-25.059968948364258
			]
		},
		{
			"mesh":2,
			"name":"Object_4",
			"rotation":[
				-0.70710688829422,
				0,
				0,
				0.7071066498756409
			],
			"translation":[
				0.2212085723876953,
				3.1340270042419434,
				-25.628582000732422
			]
		},
		{
			"mesh":3,
			"name":"Object_5",
			"rotation":[
				-0.70710688829422,
				0,
				0,
				0.7071066498756409
			],
			"translation":[
				0.09345436096191406,
				2.9854772090911865,
				-23.948543548583984
			]
		},
		{
			"mesh":4,
			"name":"Object_5.001",
			"rotation":[
				-0.70710688829422,
				0,
				0,
				0.7071066498756409
			],
			"translation":[
				0.09345436096191406,
				2.9854772090911865,
				-23.948543548583984
			]
		}
	],
	"materials":[
		{
			"alphaMode":"MASK",
			"doubleSided":true,
			"name":"Driveseat1Mtl",
			"pbrMetallicRoughness":{
				"baseColorFactor":[
					0.37361499667167664,
					0.3685910105705261,
					0.383774995803833,
					0
				],
				"metallicFactor":0
			}
		},
		{
			"alphaMode":"BLEND",
			"doubleSided":true,
			"name":"Meshpart1Mtl",
			"pbrMetallicRoughness":{
				"baseColorFactor":[
					0.002585829934105277,
					0.002585829934105277,
					0.002585829934105277,
					0.8039219975471497
				],
				"metallicFactor":0,
				"roughnessFactor":0
			}
		},
		{
			"doubleSided":true,
			"emissiveTexture":{
				"index":0
			},
			"name":"Meshpart3Mtl",
			"pbrMetallicRoughness":{
				"baseColorTexture":{
					"index":1
				},
				"roughnessFactor":0.2822857201099396
			}
		},
		{
			"doubleSided":true,
			"name":"Rr1Mtl",
			"pbrMetallicRoughness":{
				"baseColorFactor":[
					0.002585829934105277,
					0.002585829934105277,
					0.002585829934105277,
					1
				],
				"metallicFactor":0,
				"roughnessFactor":0.24571429193019867
			}
		}
	],
	"meshes":[
		{
			"name":"Object_0",
			"primitives":[
				{
					"attributes":{
						"POSITION":0,
						"NORMAL":1,
						"TEXCOORD_0":2
					},
					"indices":3,
					"material":0
				}
			]
		},
		{
			"name":"Object_1",
			"primitives":[
				{
					"attributes":{
						"POSITION":4,
						"NORMAL":5,
						"TEXCOORD_0":6
					},
					"indices":7,
					"material":1
				}
			]
		},
		{
			"name":"Object_2",
			"primitives":[
				{
					"attributes":{
						"POSITION":8,
						"NORMAL":9,
						"TEXCOORD_0":10
					},
					"indices":11,
					"material":2
				}
			]
		},
		{
			"name":"Object_3",
			"primitives":[
				{
					"attributes":{
						"POSITION":12,
						"NORMAL":13,
						"TEXCOORD_0":14
					},
					"indices":15,
					"material":3
				}
			]
		},
		{
			"name":"Object_3.001",
			"primitives":[
				{
					"attributes":{
						"POSITION":16,
						"NORMAL":17,
						"TEXCOORD_0":18
					},
					"indices":19,
					"material":3
				}
			]
		}
	],
	"textures":[
		{
			"sampler":0,
			"source":0
		},
		{
			"sampler":0,
			"source":0
		}
	],
	"images":[
		{
			"mimeType":"image/png",
			"name":"Meshpart3Mtl_baseColor",
			"uri":"Meshpart3Mtl_baseColor.png"
		}
	],
	"accessors":[
		{
			"bufferView":0,
			"componentType":5126,
			"count":24,
			"max":[
				1.0000019073486328,
				0.9999980926513672,
				0.5000002384185791
			],
			"min":[
				-0.9999980926513672,
				-1.0000019073486328,
				-0.5000028014183044
			],
			"type":"VEC3"
		},
		{
			"bufferView":1,
			"componentType":5126,
			"count":24,
			"type":"VEC3"
		},
		{
			"bufferView":2,
			"componentType":5126,
			"count":24,
			"type":"VEC2"
		},
		{
			"bufferView":3,
			"componentType":5123,
			"count":36,
			"type":"SCALAR"
		},
		{
			"bufferView":4,
			"componentType":5126,
			"count":99,
			"max":[
				2.946969985961914,
				6.104631423950195,
				0.7539749145507812
			],
			"min":[
				-2.9471302032470703,
				-4.364068984985352,
				-0.844475269317627
			],
			"type":"VEC3"
		},
		{
			"bufferView":5,
			"componentType":5126,
			"count":99,
			"type":"VEC3"
		},
		{
			"bufferView":6,
			"componentType":5126,
			"count":99,
			"type":"VEC2"
		},
		{
			"bufferView":7,
			"componentType":5123,
			"count":300,
			"type":"SCALAR"
		},
		{
			"bufferView":8,
			"componentType":5126,
			"count":5214,
			"max":[
				3.4265403747558594,
				7.548116683959961,
				2.632354736328125
			],
			"min":[
				-3.447559356689453,
				-10.929783821105957,
				-2.1200852394104004
			],
			"type":"VEC3"
		},
		{
			"bufferView":9,
			"componentType":5126,
			"count":5214,
			"type":"VEC3"
		},
		{
			"bufferView":10,
			"componentType":5126,
			"count":5214,
			"type":"VEC2"
		},
		{
			"bufferView":11,
			"componentType":5123,
			"count":16164,
			"type":"SCALAR"
		},
		{
			"bufferView":12,
			"componentType":5126,
			"count":4858,
			"max":[
				3.765094757080078,
				9.051153182983398,
				2.733875274658203
			],
			"min":[
				-3.5360050201416016,
				-9.14144515991211,
				-2.094494581222534
			],
			"type":"VEC3"
		},
		{
			"bufferView":13,
			"componentType":5126,
			"count":4858,
			"type":"VEC3"
		},
		{
			"bufferView":14,
			"componentType":5126,
			"count":4858,
			"type":"VEC2"
		},
		{
			"bufferView":15,
			"componentType":5123,
			"count":15117,
			"type":"SCALAR"
		},
		{
			"bufferView":16,
			"componentType":5126,
			"count":701,
			"max":[
				3.6580944061279297,
				6.430454254150391,
				-0.08231449127197266
			],
			"min":[
				-3.4362049102783203,
				-7.301645278930664,
				-2.985090970993042
			],
			"type":"VEC3"
		},
		{
			"bufferView":17,
			"componentType":5126,
			"count":701,
			"type":"VEC3"
		},
		{
			"bufferView":18,
			"componentType":5126,
			"count":701,
			"type":"VEC2"
		},
		{
			"bufferView":19,
			"componentType":5123,
			"count":2844,
			"type":"SCALAR"
		}
	],
	"bufferViews":[
		{
			"buffer":0,
			"byteLength":288,
			"byteOffset":0,
			"target":34962
		},
		{
			"buffer":0,
			"byteLength":288,
			"byteOffset":288,
			"target":34962
		},
		{
			"buffer":0,
			"byteLength":192,
			"byteOffset":576,
			"target":34962
		},
		{
			"buffer":0,
			"byteLength":72,
			"byteOffset":768,
			"target":34963
		},
		{
			"buffer":0,
			"byteLength":1188,
			"byteOffset":840,
			"target":34962
		},
		{
			"buffer":0,
			"byteLength":1188,
			"byteOffset":2028,
			"target":34962
		},
		{
			"buffer":0,
			"byteLength":792,
			"byteOffset":3216,
			"target":34962
		},
		{
			"buffer":0,
			"byteLength":600,
			"byteOffset":4008,
			"target":34963
		},
		{
			"buffer":0,
			"byteLength":62568,
			"byteOffset":4608,
			"target":34962
		},
		{
			"buffer":0,
			"byteLength":62568,
			"byteOffset":67176,
			"target":34962
		},
		{
			"buffer":0,
			"byteLength":41712,
			"byteOffset":129744,
			"target":34962
		},
		{
			"buffer":0,
			"byteLength":32328,
			"byteOffset":171456,
			"target":34963
		},
		{
			"buffer":0,
			"byteLength":58296,
			"byteOffset":203784,
			"target":34962
		},
		{
			"buffer":0,
			"byteLength":58296,
			"byteOffset":262080,
			"target":34962
		},
		{
			"buffer":0,
			"byteLength":38864,
			"byteOffset":320376,
			"target":34962
		},
		{
			"buffer":0,
			"byteLength":30234,
			"byteOffset":359240,
			"target":34963
		},
		{
			"buffer":0,
			"byteLength":8412,
			"byteOffset":389476,
			"target":34962
		},
		{
			"buffer":0,
			"byteLength":8412,
			"byteOffset":397888,
			"target":34962
		},
		{
			"buffer":0,
			"byteLength":5608,
			"byteOffset":406300,
			"target":34962
		},
		{
			"buffer":0,
			"byteLength":5688,
			"byteOffset":411908,
			"target":34963
		}
	],
	"samplers":[
		{
			"magFilter":9729,
			"minFilter":9987
		}
	],
	"buffers":[
		{
			"byteLength":417596,
			"uri":"car.bin"
		}
	]
}
